<svg xmlns="http://www.w3.org/2000/svg" viewBox="0 0 512 512" style="height: 512px; width: 512px;"><circle cx="256" cy="256" r="256" fill="#000000" fill-opacity="1"></circle><g class="" transform="translate(-2,32)" style=""><g transform="translate(51.2, 51.2) scale(0.8, 0.8) rotate(0, 256, 256) skewX(0) skewY(0)"><path d="M15.406 25.938C57.143 68.548 68.013 154.586 28.844 200.718C92.662 211.458 104.569 262.035 93.314 338.218C125.984 317.828 166.008 325.606 191.564 365.906C184.717 377.58 181.113 390.872 181.124 404.406C181.124 446.549 215.482 480.906 257.624 480.906C299.768 480.906 334.124 446.549 334.124 404.406C334.135 390.872 330.532 377.581 323.687 365.906C349.242 325.606 389.267 317.828 421.937 338.219C410.681 262.034 422.587 211.456 486.407 200.719C447.237 154.585 458.107 68.546 499.844 25.937C415.536 43.782 344.188 113 309.97 197.718C361.46 238.832 342.25 311.95 289.344 334.813C279.396 330.238 268.574 327.871 257.624 327.875C246.314 327.875 235.581 330.375 225.906 334.813C173 311.95 153.79 238.832 205.28 197.72C171.063 113 99.715 43.782 15.407 25.937Z" class="selected" fill="#ffffff" fill-opacity="1"></path><path d="M257.626 346.563C261.72 346.563 265.713 346.979 269.563 347.781C251.813 351.537 238.5 367.288 238.5 386.157C238.5 407.823 256.053 425.407 277.72 425.407C295.21 425.407 310.032 413.937 315.094 398.127C315.314 400.187 315.438 402.287 315.438 404.407C315.438 436.45 289.668 462.22 257.625 462.22C225.582 462.22 199.812 436.45 199.812 404.406C199.812 372.364 225.582 346.562 257.625 346.562Z" class="" fill="#000000" fill-opacity="1"></path></g></g></svg>