<svg xmlns="http://www.w3.org/2000/svg" viewBox="0 0 512 512" style="height: 512px; width: 512px;"><defs><clipPath id="icon-bg"><circle cx="256" cy="256" r="256" fill="#000" fill-opacity="1" transform="translate(-51.2, -51.2) scale(1.2, 1.2) rotate(0, 256, 256) skewX(0) skewY(0)"></circle></clipPath></defs><circle cx="256" cy="256" r="256" fill="#000" fill-opacity="1"></circle><g class="" transform="translate(0,8)" style=""><g clip-path="url(#icon-bg)" transform="translate(51.2, 51.2) scale(0.8, 0.8) rotate(0, 256, 256) skewX(0) skewY(0)"><path d="M217 28.098L217 483.902L359 441.305L359 70.697Z" class="" fill="#fff" fill-opacity="1"></path><path d="M119 55L119 215L137 215L137 73L199 73L199 55Z" class="" fill="#fff" fill-opacity="1"></path><path d="M376.98 55.03L377 57.305L377 87L393 87L393 55Z" class="" fill="#fff" fill-opacity="1"></path><path d="M377 105L377 121L393 121L393 105Z" class="" fill="#fff" fill-opacity="1"></path><path d="M377 139L377 375L393 375L393 139Z" class="" fill="#fff" fill-opacity="1"></path><path d="M100.436 197.727L42.162 256L100.436 314.273L100.436 279L196.436 279L196.436 233L100.436 233Z" class="" fill="#060000" fill-opacity="1"></path><path d="M244 232C250.627 232 256 242.745 256 256C256 269.255 250.627 280 244 280C237.373 280 232 269.255 232 256C232 242.745 237.373 232 244 232Z" class="" fill="#090000" fill-opacity="1"></path><path d="M119 297L119 448L137 448L137 297Z" class="selected" fill="#fff" fill-opacity="1"></path><path d="M377 393L377 407L393 407L393 393Z" class="" fill="#fff" fill-opacity="1"></path><path d="M377 425L377 448L393 448L393 425Z" class="" fill="#fff" fill-opacity="1"></path><path d="M32 471L32 489L199 489L199 471Z" class="" fill="#fff" fill-opacity="1"></path><path d="M322.652 471L262.652 489L480 489L480 471Z" class="" fill="#fff" fill-opacity="1"></path></g></g></svg>