<svg xmlns="http://www.w3.org/2000/svg" viewBox="0 0 512 512" style="height: 512px; width: 512px;"><defs><clipPath id="icon-bg"><circle cx="256" cy="256" r="256" fill="#000" fill-opacity="1" transform="translate(-51.2, -51.2) scale(1.2, 1.2) rotate(0, 256, 256) skewX(0) skewY(0)"></circle></clipPath></defs><circle cx="256" cy="256" r="256" fill="#000" fill-opacity="1"></circle><g class="" transform="translate(0,-1)" style=""><path d="M105 41v398h302V41H105zm55 174c18.1 0 33 14.9 33 33s-14.9 33-33 33-33-14.9-33-33 14.9-33 33-33zm0 18c-8.4 0-15 6.6-15 15s6.6 15 15 15 15-6.6 15-15-6.6-15-15-15zM73 457v30h366v-30H73z" fill="#fff" fill-opacity="1" clip-path="url(#icon-bg)" transform="translate(51.2, 51.2) scale(0.8, 0.8) rotate(0, 256, 256) skewX(0) skewY(0)"></path></g></svg>